<svg fill="none" height="20" viewBox="0 0 20 20" width="20" xmlns="http://www.w3.org/2000/svg">
    <g id="Frame">
        <path d="M9.17079 17.4998C9.17079 16.8093 8.61113 16.2498 7.92078 16.2498C7.23043 16.2498 6.67078 16.8093 6.67078 17.4998H2.50411C2.04388 17.4998 1.67078 17.1266 1.67078 16.6664V3.33305C1.67078 2.87282 2.04388 2.49972 2.50411 2.49972H6.67078C6.67078 3.19008 7.23043 3.74972 7.92078 3.74972C8.61113 3.74972 9.17079 3.19008 9.17079 2.49972H17.5041C17.9644 2.49972 18.3375 2.87282 18.3375 3.33305V7.91638C17.1869 7.91638 16.2541 8.84917 16.2541 9.99975C16.2541 11.1503 17.1869 12.0831 18.3375 12.0831V16.6664C18.3375 17.1266 17.9644 17.4998 17.5041 17.4998H9.17079ZM7.92078 8.74975C8.61113 8.74975 9.17079 8.19008 9.17079 7.49972C9.17079 6.80937 8.61113 6.24972 7.92078 6.24972C7.23043 6.24972 6.67078 6.80937 6.67078 7.49972C6.67078 8.19008 7.23043 8.74975 7.92078 8.74975ZM7.92078 13.7498C8.61113 13.7498 9.17079 13.1901 9.17079 12.4998C9.17079 11.8093 8.61113 11.2498 7.92078 11.2498C7.23043 11.2498 6.67078 11.8093 6.67078 12.4998C6.67078 13.1901 7.23043 13.7498 7.92078 13.7498Z"
            fill="#01ACF0"
            id="Vector" />
    </g>
</svg>
