<svg fill="none" height="24" viewBox="0 0 25 24" width="25" xmlns="http://www.w3.org/2000/svg">
    <g id="booking-online 1">
        <path d="M13.3407 21.634H14.0846C14.4311 21.634 14.7387 21.8343 14.8482 22.1312L15.1165 22.8583C15.2903 23.3291 14.9023 23.8154 14.3529 23.8154H10.1472C9.59797 23.8154 9.20986 23.3291 9.38358 22.8583L9.65187 22.1312C9.76144 21.8343 10.069 21.634 10.4155 21.634H13.3407Z"
            fill="#C6C3D8"
            id="Vector" />
        <path d="M20.6117 8.18274H3.88836C3.48679 8.18274 3.16125 8.50828 3.16125 8.90985V19.0893C3.16125 19.4908 3.48679 19.8164 3.88836 19.8164H20.6117C21.0132 19.8164 21.3388 19.4908 21.3388 19.0893V8.90985C21.3388 8.50828 21.0132 8.18274 20.6117 8.18274Z"
            fill="#82BCF4"
            id="Vector_2" />
        <path d="M15.8855 5.63793V7.09215H17.3397V5.63793H15.8855ZM12.9771 5.63793V7.09215H14.4313V5.63793H12.9771ZM10.0687 5.63793V7.09215H11.5229V5.63793H10.0687ZM7.16027 8.54632V10.0005H8.61449V8.54632H7.16027ZM5.70605 4.18372V10.0005C5.70601 10.1915 5.74359 10.3806 5.81665 10.5571C5.88972 10.7335 5.99683 10.8939 6.13188 11.0289C6.26692 11.164 6.42725 11.2711 6.60371 11.3441C6.78016 11.4172 6.96929 11.4548 7.16027 11.4547H17.3397C17.5307 11.4548 17.7198 11.4172 17.8962 11.3441C18.0727 11.2711 18.233 11.164 18.3681 11.0289C18.5031 10.8939 18.6102 10.7335 18.6833 10.5571C18.7564 10.3806 18.794 10.1915 18.7939 10.0005V4.18372H5.70605Z"
            fill="#EDEBF2"
            id="Vector_3" />
        <path d="M7.16028 8.54626H8.61449V10.0005H7.16028V8.54626Z" fill="#919191" id="Vector_4" />
        <path d="M18.7939 2.72944V4.18365H5.70605V2.72944C5.70601 2.53846 5.7436 2.34934 5.81666 2.17289C5.88973 1.99644 5.99685 1.83612 6.13189 1.70107C6.26694 1.56603 6.42727 1.45892 6.60372 1.38586C6.78017 1.3128 6.96929 1.27522 7.16027 1.27527H17.3397C17.5307 1.27522 17.7198 1.3128 17.8962 1.38586C18.0727 1.45892 18.233 1.56603 18.3681 1.70107C18.5031 1.83612 18.6102 1.99644 18.6833 2.17289C18.7564 2.34934 18.7939 2.53846 18.7939 2.72944Z"
            fill="#F26674"
            id="Vector_5" />
        <path d="M10.0687 5.63782H11.5229V7.09203H10.0687V5.63782Z" fill="#919191" id="Vector_6" />
        <path d="M12.9771 5.63782H14.4313V7.09203H12.9771V5.63782Z" fill="#919191" id="Vector_7" />
        <path d="M15.8855 5.63782H17.3397V7.09203H15.8855V5.63782Z" fill="#919191" id="Vector_8" />
        <path d="M9.34158 2.36589C9.29384 2.36591 9.24655 2.35651 9.20244 2.33824C9.15833 2.31998 9.11824 2.2932 9.08448 2.25944C9.05072 2.22568 9.02394 2.18559 9.00568 2.14148C8.98741 2.09737 8.97802 2.05009 8.97803 2.00234V0.548124C8.97803 0.451704 9.01633 0.359232 9.08451 0.291053C9.15269 0.222873 9.24516 0.18457 9.34158 0.18457C9.438 0.18457 9.53047 0.222873 9.59865 0.291053C9.66683 0.359232 9.70513 0.451704 9.70513 0.548124V2.00234C9.70514 2.05008 9.69574 2.09736 9.67747 2.14147C9.65921 2.18558 9.63243 2.22566 9.59867 2.25942C9.56491 2.29318 9.52483 2.31996 9.48071 2.33823C9.4366 2.3565 9.38933 2.3659 9.34158 2.36589Z"
            fill="#919191"
            id="Vector_9" />
        <path d="M15.1584 2.36589C15.1106 2.3659 15.0633 2.3565 15.0192 2.33823C14.9751 2.31996 14.935 2.29318 14.9013 2.25942C14.8675 2.22566 14.8407 2.18558 14.8225 2.14147C14.8042 2.09736 14.7948 2.05008 14.7948 2.00234V0.548124C14.7948 0.451704 14.8331 0.359232 14.9013 0.291053C14.9695 0.222873 15.0619 0.18457 15.1584 0.18457C15.2548 0.18457 15.3472 0.222873 15.4154 0.291053C15.4836 0.359232 15.5219 0.451704 15.5219 0.548124V2.00234C15.5219 2.05009 15.5125 2.09737 15.4943 2.14148C15.476 2.18559 15.4492 2.22568 15.4155 2.25944C15.3817 2.2932 15.3416 2.31998 15.2975 2.33824C15.2534 2.35651 15.2061 2.36591 15.1584 2.36589Z"
            fill="#919191"
            id="Vector_10" />
        <path d="M12.25 2.36589C12.2023 2.36591 12.155 2.35651 12.1109 2.33824C12.0668 2.31998 12.0267 2.2932 11.9929 2.25944C11.9592 2.22568 11.9324 2.18559 11.9141 2.14148C11.8959 2.09737 11.8865 2.05009 11.8865 2.00234V0.548124C11.8865 0.451704 11.9248 0.359232 11.993 0.291053C12.0611 0.222873 12.1536 0.18457 12.25 0.18457C12.3464 0.18457 12.4389 0.222873 12.5071 0.291053C12.5753 0.359232 12.6136 0.451704 12.6136 0.548124V2.00234C12.6136 2.05009 12.6042 2.09737 12.5859 2.14148C12.5677 2.18559 12.5409 2.22568 12.5071 2.25944C12.4734 2.2932 12.4333 2.31998 12.3892 2.33824C12.3451 2.35651 12.2978 2.36591 12.25 2.36589Z"
            fill="#919191"
            id="Vector_11" />
        <path d="M10.5388 10.2575L9.81166 9.53042C9.74349 9.46225 9.7052 9.36978 9.7052 9.27337C9.7052 9.17696 9.74351 9.0845 9.81168 9.01634C9.87986 8.94817 9.97232 8.90987 10.0687 8.90988C10.1651 8.90988 10.2576 8.94818 10.3258 9.01636L10.6961 9.38684L11.1977 8.38368C11.2414 8.29834 11.3169 8.2337 11.408 8.2038C11.4991 8.17391 11.5983 8.18119 11.684 8.22406C11.7698 8.26692 11.8351 8.34191 11.8658 8.43271C11.8965 8.5235 11.8902 8.62276 11.8481 8.70888L11.121 10.1631C11.0953 10.2146 11.0576 10.2593 11.0112 10.2935C10.9648 10.3276 10.9109 10.3502 10.8541 10.3594C10.7972 10.3687 10.7389 10.3642 10.6841 10.3465C10.6293 10.3288 10.5795 10.2983 10.5388 10.2575Z"
            fill="#F26674"
            id="Vector_12" />
        <path d="M13.4471 10.2575L12.7201 9.53036C12.6528 9.46201 12.6152 9.36983 12.6156 9.27392C12.616 9.17801 12.6542 9.08614 12.7221 9.01832C12.7899 8.9505 12.8818 8.91223 12.9777 8.91185C13.0736 8.91147 13.1658 8.94902 13.2341 9.0163L13.6044 9.38678L14.1061 8.38362C14.1492 8.29737 14.2248 8.23178 14.3163 8.20128C14.4078 8.17078 14.5076 8.17788 14.5939 8.221C14.6801 8.26412 14.7457 8.33975 14.7762 8.43123C14.8067 8.52272 14.7996 8.62257 14.7565 8.70882L14.0294 10.163C14.0036 10.2146 13.966 10.2593 13.9196 10.2934C13.8732 10.3275 13.8193 10.3501 13.7624 10.3594C13.7056 10.3686 13.6473 10.3642 13.5925 10.3464C13.5377 10.3287 13.4878 10.2982 13.4471 10.2575Z"
            fill="#F26674"
            id="Vector_13" />
        <path d="M16.3556 10.2575L15.6285 9.53042C15.5612 9.46207 15.5237 9.36989 15.5241 9.27398C15.5244 9.17807 15.5627 9.0862 15.6305 9.01838C15.6983 8.95056 15.7902 8.91229 15.8861 8.91191C15.982 8.91153 16.0742 8.94908 16.1426 9.01636L16.5129 9.38684L17.0145 8.38368C17.0582 8.29834 17.1338 8.2337 17.2249 8.2038C17.3159 8.17391 17.4151 8.18119 17.5009 8.22406C17.5866 8.26692 17.6519 8.34191 17.6827 8.43271C17.7134 8.5235 17.707 8.62276 17.6649 8.70888L16.9378 10.1631C16.9121 10.2146 16.8745 10.2593 16.8281 10.2935C16.7816 10.3276 16.7278 10.3502 16.6709 10.3594C16.614 10.3687 16.5558 10.3642 16.501 10.3465C16.4461 10.3288 16.3963 10.2983 16.3556 10.2575Z"
            fill="#F26674"
            id="Vector_14" />
        <path d="M21.3388 17.2715V19.0893C21.3382 19.2819 21.2614 19.4665 21.1252 19.6028C20.9889 19.739 20.8043 19.8158 20.6117 19.8164H3.88836C3.69569 19.8158 3.51108 19.739 3.37484 19.6028C3.2386 19.4665 3.16182 19.2819 3.16125 19.0893V17.2715H21.3388Z"
            fill="#EDEBF2"
            id="Vector_15" />
        <path d="M11.1593 19.8163H13.3406V22.3611H11.1593V19.8163Z" fill="#DAD7E5" id="Vector_16" />
        <g id="Group">
            <path d="M6.79676 13.6359C6.79619 13.4433 6.71941 13.2586 6.58317 13.1224C6.44693 12.9862 6.26232 12.9094 6.06965 12.9088H4.97903C4.8827 12.9091 4.79039 12.9475 4.72227 13.0156C4.65415 13.0837 4.61576 13.176 4.61548 13.2724V15.4537C4.61576 15.55 4.65415 15.6423 4.72227 15.7105C4.79039 15.7786 4.8827 15.817 4.97903 15.8172H6.06965C6.26232 15.8167 6.44693 15.7399 6.58317 15.6037C6.71941 15.4674 6.79619 15.2828 6.79676 15.0901V14.7266C6.79539 14.5986 6.76027 14.4731 6.69494 14.363C6.76028 14.2529 6.7954 14.1275 6.79676 13.9995V13.6359ZM6.06965 15.0901H5.34254V14.7266H6.06965V15.0901ZM6.06965 13.9995H5.34254V13.6359H6.06965V13.9995Z"
                fill="#425B72"
                id="Vector_17" />
            <path d="M8.61449 12.9088H7.88739C7.69472 12.9094 7.5101 12.9862 7.37386 13.1224C7.23762 13.2586 7.16084 13.4433 7.16028 13.6359V15.0901C7.16084 15.2828 7.23762 15.4674 7.37386 15.6037C7.5101 15.7399 7.69472 15.8167 7.88739 15.8172H8.61449C8.80716 15.8167 8.99178 15.7399 9.12802 15.6037C9.26426 15.4674 9.34104 15.2828 9.3416 15.0901V13.6359C9.34104 13.4433 9.26426 13.2586 9.12802 13.1224C8.99178 12.9862 8.80716 12.9094 8.61449 12.9088ZM8.61449 15.0901H7.88739V13.6359H8.61449V15.0901Z"
                fill="#425B72"
                id="Vector_18" />
            <path d="M11.1594 12.9088H10.4323C10.2396 12.9094 10.055 12.9862 9.91877 13.1224C9.78254 13.2587 9.70576 13.4433 9.7052 13.6359V15.0901C9.70576 15.2828 9.78254 15.4674 9.91877 15.6036C10.055 15.7399 10.2396 15.8167 10.4323 15.8172H11.1594C11.352 15.8167 11.5367 15.7399 11.6729 15.6037C11.8091 15.4674 11.8859 15.2828 11.8865 15.0901V13.6359C11.8859 13.4433 11.8091 13.2586 11.6729 13.1224C11.5367 12.9862 11.352 12.9094 11.1594 12.9088ZM11.1594 15.0901H10.4323V13.6359H11.1594V15.0901Z"
                fill="#425B72"
                id="Vector_19" />
            <path d="M13.9612 13.0153C13.9275 12.9816 13.8874 12.9548 13.8433 12.9365C13.7992 12.9182 13.7519 12.9088 13.7042 12.9088C13.6565 12.9088 13.6092 12.9182 13.5651 12.9365C13.521 12.9548 13.4809 12.9816 13.4471 13.0153L12.9771 13.4854V13.2724C12.9771 13.1759 12.9388 13.0835 12.8706 13.0153C12.8024 12.9471 12.71 12.9088 12.6136 12.9088C12.5171 12.9088 12.4247 12.9471 12.3565 13.0153C12.2883 13.0835 12.25 13.1759 12.25 13.2724V15.4537C12.25 15.5501 12.2883 15.6426 12.3565 15.7108C12.4247 15.7789 12.5171 15.8172 12.6136 15.8172C12.71 15.8172 12.8024 15.7789 12.8706 15.7108C12.9388 15.6426 12.9771 15.5501 12.9771 15.4537V15.2406L13.4471 15.7107C13.5153 15.7789 13.6078 15.8172 13.7042 15.8172C13.8006 15.8172 13.893 15.7789 13.9612 15.7107C14.0294 15.6426 14.0677 15.5501 14.0677 15.4537C14.0677 15.3573 14.0294 15.2648 13.9612 15.1967L13.1276 14.363L13.9612 13.5294C13.995 13.4957 14.0218 13.4556 14.0401 13.4115C14.0584 13.3674 14.0678 13.3201 14.0678 13.2724C14.0678 13.2246 14.0584 13.1774 14.0401 13.1333C14.0218 13.0892 13.995 13.0491 13.9612 13.0153Z"
                fill="#425B72"
                id="Vector_20" />
            <path d="M14.7948 12.9088C14.7471 12.9088 14.6998 12.9182 14.6557 12.9365C14.6116 12.9547 14.5715 12.9815 14.5377 13.0153C14.504 13.049 14.4772 13.0891 14.4589 13.1332C14.4407 13.1773 14.4313 13.2246 14.4313 13.2724V15.4537C14.4308 15.5018 14.4398 15.5495 14.4578 15.5941C14.4758 15.6387 14.5025 15.6792 14.5363 15.7134C14.5701 15.7476 14.6104 15.7747 14.6548 15.7933C14.6991 15.8118 14.7467 15.8213 14.7948 15.8213C14.8429 15.8213 14.8905 15.8118 14.9349 15.7933C14.9793 15.7747 15.0195 15.7476 15.0533 15.7134C15.0872 15.6792 15.1138 15.6387 15.1319 15.5941C15.1499 15.5495 15.1589 15.5018 15.1584 15.4537V13.2724C15.1584 13.2246 15.149 13.1773 15.1307 13.1332C15.1124 13.0891 15.0857 13.049 15.0519 13.0153C15.0181 12.9815 14.9781 12.9547 14.9339 12.9365C14.8898 12.9182 14.8426 12.9088 14.7948 12.9088Z"
                fill="#425B72"
                id="Vector_21" />
            <path d="M16.9787 12.9088C16.9309 12.9088 16.8837 12.9182 16.8395 12.9365C16.7954 12.9547 16.7553 12.9815 16.7216 13.0153C16.6878 13.049 16.661 13.0891 16.6428 13.1332C16.6245 13.1773 16.6151 13.2246 16.6151 13.2724V13.9168L16.2104 13.1094C16.1737 13.0362 16.1134 12.9776 16.0392 12.943C15.9651 12.9084 15.8814 12.8998 15.8017 12.9186C15.7221 12.9375 15.6511 12.9827 15.6004 13.0469C15.5496 13.1111 15.522 13.1905 15.522 13.2724V15.4537C15.522 15.5501 15.5603 15.6426 15.6285 15.7108C15.6966 15.7789 15.7891 15.8172 15.8855 15.8172C15.9819 15.8172 16.0744 15.7789 16.1426 15.7108C16.2108 15.6426 16.2491 15.5501 16.2491 15.4537V14.8093L16.6538 15.6167C16.6905 15.6898 16.7508 15.7485 16.825 15.7831C16.8991 15.8177 16.9828 15.8263 17.0625 15.8074C17.1421 15.7886 17.2131 15.7434 17.2638 15.6792C17.3146 15.615 17.3422 15.5355 17.3422 15.4537V13.2724C17.3422 13.2246 17.3329 13.1773 17.3146 13.1332C17.2963 13.0891 17.2695 13.049 17.2358 13.0153C17.202 12.9815 17.1619 12.9547 17.1178 12.9365C17.0737 12.9182 17.0264 12.9088 16.9787 12.9088Z"
                fill="#425B72"
                id="Vector_22" />
            <path d="M19.521 13.9995H19.1575C19.061 13.9995 18.9686 14.0378 18.9004 14.106C18.8322 14.1741 18.7939 14.2666 18.7939 14.363C18.7939 14.4595 18.8322 14.5519 18.9004 14.6201C18.9686 14.6883 19.061 14.7266 19.1575 14.7266V15.0901H18.4304V13.6359H19.521C19.6174 13.6359 19.7099 13.5976 19.778 13.5294C19.8462 13.4613 19.8845 13.3688 19.8845 13.2724C19.8845 13.1759 19.8462 13.0835 19.778 13.0153C19.7099 12.9471 19.6174 12.9088 19.521 12.9088H18.4304C18.2376 12.909 18.0528 12.9857 17.9165 13.122C17.7801 13.2583 17.7035 13.4431 17.7032 13.6359V15.0901C17.7035 15.2829 17.7801 15.4677 17.9165 15.604C18.0528 15.7403 18.2376 15.817 18.4304 15.8172H19.1575C19.3502 15.817 19.535 15.7403 19.6713 15.604C19.8076 15.4677 19.8843 15.2829 19.8845 15.0901V14.363C19.8845 14.3153 19.8751 14.268 19.8569 14.2239C19.8386 14.1798 19.8118 14.1397 19.7781 14.1059C19.7443 14.0722 19.7042 14.0454 19.6601 14.0271C19.616 14.0089 19.5687 13.9995 19.521 13.9995Z"
                fill="#425B72"
                id="Vector_23" />
        </g>
        <path d="M16.6125 18.1804H17.3397V18.9075H16.6125V18.1804Z" fill="#919191" id="Vector_24" />
        <path d="M18.0668 18.1804H18.7939V18.9075H18.0668V18.1804Z" fill="#919191" id="Vector_25" />
        <path d="M19.521 18.1804H20.2481V18.9075H19.521V18.1804Z" fill="#919191" id="Vector_26" />
        <path d="M14.3513 23.8154H12.25V21.634H14.0859C14.4313 21.634 14.7403 21.834 14.8494 22.1321L15.1148 22.8592C15.2893 23.3282 14.9038 23.8154 14.3513 23.8154Z"
            fill="#AFAAC8"
            id="Vector_27" />
        <path d="M21.3388 8.90985V19.0893C21.3382 19.2819 21.2614 19.4665 21.1252 19.6028C20.9889 19.739 20.8043 19.8158 20.6116 19.8164H12.25V8.18274H20.6116C20.8043 8.1833 20.9889 8.26008 21.1252 8.39632C21.2614 8.53256 21.3382 8.71718 21.3388 8.90985Z"
            fill="#5CA8F1"
            id="Vector_28" />
        <path d="M12.25 4.18372V11.4547H17.3397C17.5307 11.4548 17.7198 11.4172 17.8963 11.3441C18.0727 11.2711 18.2331 11.164 18.3681 11.0289C18.5031 10.8939 18.6103 10.7335 18.6833 10.5571C18.7564 10.3806 18.794 10.1915 18.7939 10.0005V4.18372H12.25ZM12.9771 5.63793V7.09215H14.4313V5.63793H12.9771ZM15.8855 5.63793V7.09215H17.3397V5.63793H15.8855Z"
            fill="#D7D2E2"
            id="Vector_29" />
        <path d="M18.7939 2.72944V4.18365H12.25V1.27527H17.3397C17.5307 1.27522 17.7198 1.3128 17.8963 1.38586C18.0727 1.45892 18.233 1.56603 18.3681 1.70107C18.5031 1.83612 18.6102 1.99644 18.6833 2.17289C18.7564 2.34934 18.794 2.53846 18.7939 2.72944Z"
            fill="#EF4052"
            id="Vector_30" />
        <path d="M12.9771 5.63782H14.4313V7.09203H12.9771V5.63782Z" fill="#7D7D7D" id="Vector_31" />
        <path d="M15.8855 5.63782H17.3397V7.09203H15.8855V5.63782Z" fill="#7D7D7D" id="Vector_32" />
        <path d="M15.1584 2.36589C15.1106 2.3659 15.0633 2.3565 15.0192 2.33823C14.9751 2.31996 14.935 2.29318 14.9013 2.25942C14.8675 2.22566 14.8407 2.18558 14.8225 2.14147C14.8042 2.09736 14.7948 2.05008 14.7948 2.00234V0.548124C14.7948 0.451704 14.8331 0.359232 14.9013 0.291053C14.9695 0.222873 15.0619 0.18457 15.1584 0.18457C15.2548 0.18457 15.3472 0.222873 15.4154 0.291053C15.4836 0.359232 15.5219 0.451704 15.5219 0.548124V2.00234C15.5219 2.05009 15.5125 2.09737 15.4943 2.14148C15.476 2.18559 15.4492 2.22568 15.4155 2.25944C15.3817 2.2932 15.3416 2.31998 15.2975 2.33824C15.2534 2.35651 15.2061 2.36591 15.1584 2.36589Z"
            fill="#7D7D7D"
            id="Vector_33" />
        <path d="M12.6136 0.548124V2.00234C12.6133 2.09867 12.5749 2.19098 12.5068 2.2591C12.4386 2.32722 12.3463 2.36561 12.25 2.36589V0.18457C12.3463 0.18485 12.4386 0.223243 12.5068 0.291362C12.5749 0.359481 12.6133 0.45179 12.6136 0.548124Z"
            fill="#7D7D7D"
            id="Vector_34" />
        <path d="M13.4471 10.2575L12.7201 9.53036C12.6528 9.46201 12.6152 9.36983 12.6156 9.27392C12.616 9.17801 12.6542 9.08614 12.7221 9.01832C12.7899 8.9505 12.8818 8.91223 12.9777 8.91185C13.0736 8.91147 13.1658 8.94902 13.2341 9.0163L13.6044 9.38678L14.1061 8.38362C14.1492 8.29737 14.2248 8.23178 14.3163 8.20128C14.4078 8.17078 14.5076 8.17788 14.5939 8.221C14.6801 8.26412 14.7457 8.33975 14.7762 8.43123C14.8067 8.52272 14.7996 8.62257 14.7565 8.70882L14.0294 10.163C14.0036 10.2146 13.966 10.2593 13.9196 10.2934C13.8732 10.3275 13.8193 10.3501 13.7624 10.3594C13.7056 10.3686 13.6473 10.3642 13.5925 10.3464C13.5377 10.3287 13.4878 10.2982 13.4471 10.2575Z"
            fill="#EF4052"
            id="Vector_35" />
        <path d="M16.3556 10.2575L15.6285 9.53042C15.5612 9.46207 15.5237 9.36989 15.5241 9.27398C15.5244 9.17807 15.5627 9.0862 15.6305 9.01838C15.6983 8.95056 15.7902 8.91229 15.8861 8.91191C15.982 8.91153 16.0742 8.94908 16.1426 9.01636L16.5129 9.38684L17.0145 8.38368C17.0582 8.29834 17.1338 8.2337 17.2249 8.2038C17.3159 8.17391 17.4151 8.18119 17.5009 8.22406C17.5866 8.26692 17.6519 8.34191 17.6827 8.43271C17.7134 8.5235 17.707 8.62276 17.6649 8.70888L16.9378 10.1631C16.9121 10.2146 16.8745 10.2593 16.8281 10.2935C16.7816 10.3276 16.7278 10.3502 16.6709 10.3594C16.614 10.3687 16.5558 10.3642 16.501 10.3465C16.4461 10.3288 16.3963 10.2983 16.3556 10.2575Z"
            fill="#EF4052"
            id="Vector_36" />
        <path d="M21.3388 17.2715V19.0893C21.3382 19.2819 21.2614 19.4665 21.1252 19.6028C20.9889 19.739 20.8043 19.8158 20.6116 19.8164H12.25V17.2715H21.3388Z"
            fill="#D7D2E2"
            id="Vector_37" />
        <path d="M12.25 19.8163H13.3407V22.3611H12.25V19.8163Z" fill="#C3BED5" id="Vector_38" />
        <path d="M13.9623 15.1956C14.0304 15.2642 14.0687 15.357 14.0687 15.4537C14.0687 15.5504 14.0304 15.6432 13.9623 15.7118C13.8934 15.7794 13.8007 15.8173 13.7042 15.8173C13.6077 15.8173 13.515 15.7794 13.4461 15.7118L12.9771 15.2392V15.4537C12.9771 15.5501 12.9388 15.6426 12.8706 15.7108C12.8024 15.779 12.71 15.8173 12.6136 15.8173C12.5171 15.8173 12.4247 15.779 12.3565 15.7108C12.2883 15.6426 12.25 15.5501 12.25 15.4537V13.2724C12.25 13.176 12.2883 13.0835 12.3565 13.0153C12.4247 12.9471 12.5171 12.9088 12.6136 12.9088C12.71 12.9088 12.8024 12.9471 12.8706 13.0153C12.9388 13.0835 12.9771 13.176 12.9771 13.2724V13.4869L13.4461 13.0143C13.48 12.9804 13.5202 12.9535 13.5645 12.9351C13.6088 12.9168 13.6563 12.9073 13.7042 12.9073C13.7521 12.9074 13.7996 12.9168 13.8439 12.9351C13.8882 12.9535 13.9284 12.9804 13.9623 13.0143C13.9962 13.0482 14.0231 13.0884 14.0415 13.1327C14.0598 13.177 14.0692 13.2245 14.0692 13.2724C14.0692 13.3204 14.0598 13.3678 14.0414 13.4121C14.0231 13.4564 13.9962 13.4966 13.9623 13.5305L13.1261 14.3631L13.9623 15.1956Z"
            fill="#334658"
            id="Vector_39" />
        <path d="M14.7948 12.9088C14.7471 12.9088 14.6998 12.9182 14.6557 12.9365C14.6116 12.9547 14.5715 12.9815 14.5377 13.0153C14.504 13.049 14.4772 13.0891 14.4589 13.1332C14.4407 13.1773 14.4313 13.2246 14.4313 13.2724V15.4537C14.4308 15.5018 14.4398 15.5495 14.4578 15.5941C14.4758 15.6387 14.5025 15.6792 14.5363 15.7134C14.5701 15.7476 14.6104 15.7747 14.6548 15.7933C14.6991 15.8118 14.7467 15.8213 14.7948 15.8213C14.8429 15.8213 14.8905 15.8118 14.9349 15.7933C14.9793 15.7747 15.0195 15.7476 15.0533 15.7134C15.0872 15.6792 15.1138 15.6387 15.1319 15.5941C15.1499 15.5495 15.1589 15.5018 15.1584 15.4537V13.2724C15.1584 13.2246 15.149 13.1773 15.1307 13.1332C15.1124 13.0891 15.0857 13.049 15.0519 13.0153C15.0181 12.9815 14.9781 12.9547 14.9339 12.9365C14.8898 12.9182 14.8426 12.9088 14.7948 12.9088Z"
            fill="#334658"
            id="Vector_40" />
        <path d="M16.9787 12.9088C16.9309 12.9088 16.8837 12.9182 16.8395 12.9365C16.7954 12.9547 16.7553 12.9815 16.7216 13.0153C16.6878 13.049 16.661 13.0891 16.6428 13.1332C16.6245 13.1773 16.6151 13.2246 16.6151 13.2724V13.9168L16.2104 13.1094C16.1737 13.0362 16.1134 12.9776 16.0392 12.943C15.9651 12.9084 15.8814 12.8998 15.8017 12.9186C15.7221 12.9375 15.6511 12.9827 15.6004 13.0469C15.5496 13.1111 15.522 13.1905 15.522 13.2724V15.4537C15.522 15.5501 15.5603 15.6426 15.6285 15.7108C15.6966 15.7789 15.7891 15.8172 15.8855 15.8172C15.9819 15.8172 16.0744 15.7789 16.1426 15.7108C16.2108 15.6426 16.2491 15.5501 16.2491 15.4537V14.8093L16.6538 15.6167C16.6905 15.6898 16.7508 15.7485 16.825 15.7831C16.8991 15.8177 16.9828 15.8263 17.0625 15.8074C17.1421 15.7886 17.2131 15.7434 17.2638 15.6792C17.3146 15.615 17.3422 15.5355 17.3422 15.4537V13.2724C17.3422 13.2246 17.3329 13.1773 17.3146 13.1332C17.2963 13.0891 17.2695 13.049 17.2358 13.0153C17.202 12.9815 17.1619 12.9547 17.1178 12.9365C17.0737 12.9182 17.0264 12.9088 16.9787 12.9088Z"
            fill="#334658"
            id="Vector_41" />
        <path d="M19.521 13.9995H19.1575C19.061 13.9995 18.9686 14.0378 18.9004 14.106C18.8322 14.1741 18.7939 14.2666 18.7939 14.363C18.7939 14.4595 18.8322 14.5519 18.9004 14.6201C18.9686 14.6883 19.061 14.7266 19.1575 14.7266V15.0901H18.4304V13.6359H19.521C19.6174 13.6359 19.7099 13.5976 19.778 13.5294C19.8462 13.4613 19.8845 13.3688 19.8845 13.2724C19.8845 13.1759 19.8462 13.0835 19.778 13.0153C19.7099 12.9471 19.6174 12.9088 19.521 12.9088H18.4304C18.2376 12.909 18.0528 12.9857 17.9165 13.122C17.7801 13.2583 17.7035 13.4431 17.7032 13.6359V15.0901C17.7035 15.2829 17.7801 15.4677 17.9165 15.604C18.0528 15.7403 18.2376 15.817 18.4304 15.8172H19.1575C19.3502 15.817 19.535 15.7403 19.6713 15.604C19.8076 15.4677 19.8843 15.2829 19.8845 15.0901V14.363C19.8845 14.3153 19.8751 14.268 19.8569 14.2239C19.8386 14.1798 19.8118 14.1397 19.7781 14.1059C19.7443 14.0722 19.7042 14.0454 19.6601 14.0271C19.616 14.0089 19.5687 13.9995 19.521 13.9995Z"
            fill="#334658"
            id="Vector_42" />
        <path d="M16.6125 18.1804H17.3397V18.9075H16.6125V18.1804Z" fill="#7D7D7D" id="Vector_43" />
        <path d="M18.0668 18.1804H18.7939V18.9075H18.0668V18.1804Z" fill="#7D7D7D" id="Vector_44" />
        <path d="M19.521 18.1804H20.2481V18.9075H19.521V18.1804Z" fill="#7D7D7D" id="Vector_45" />
    </g>
</svg>
