<svg fill="none" height="14" viewBox="0 0 14 14" width="14" xmlns="http://www.w3.org/2000/svg">
    <path
        d="M7.33329 13.3939C3.65139 13.3939 0.666626 10.4091 0.666626 6.72721C0.666626 3.04531 3.65139 0.0605469 7.33329 0.0605469C11.0152 0.0605469 14 3.04531 14 6.72721C14 10.4091 11.0152 13.3939 7.33329 13.3939ZM7.33329 12.0605C10.2788 12.0605 12.6666 9.67275 12.6666 6.72721C12.6666 3.78169 10.2788 1.39388 7.33329 1.39388C4.38777 1.39388 1.99996 3.78169 1.99996 6.72721C1.99996 9.67275 4.38777 12.0605 7.33329 12.0605ZM7.99996 6.72721H10.6666V8.06055H6.66663V3.39388H7.99996V6.72721Z"
        fill="#01ACF0" />
</svg>
