<svg width="20" height="21" viewBox="0 0 20 21" fill="none" xmlns="http://www.w3.org/2000/svg">
<path fill-rule="evenodd" clip-rule="evenodd" d="M11.6666 18.6969H8.33329C5.1906 18.6969 3.61925 18.6969 2.64294 17.7206C1.66663 16.7443 1.66663 15.173 1.66663 12.0303V8.69694C1.66663 5.55424 1.66663 3.98289 2.64294 3.00658C3.61925 2.03027 5.19887 2.03027 8.35812 2.03027C8.86312 2.03027 9.26779 2.03027 9.6083 2.04416C9.59709 2.11077 9.59122 2.17871 9.59099 2.24741L9.58329 4.60941C9.58322 5.52367 9.58315 6.33164 9.67071 6.9829C9.76562 7.68884 9.98355 8.39466 10.5596 8.97072C11.1357 9.54678 11.8415 9.7647 12.5474 9.85961C13.1987 9.94717 14.0067 9.9471 14.9209 9.94703L15 9.94703H18.2978C18.3333 10.3923 18.3333 10.9387 18.3333 11.666V12.0303C18.3333 15.173 18.3333 16.7443 17.357 17.7206C16.3807 18.6969 14.8093 18.6969 11.6666 18.6969ZM4.37496 12.4469C4.37496 12.1018 4.65478 11.8219 4.99996 11.8219H11.6666C12.0118 11.8219 12.2916 12.1018 12.2916 12.4469C12.2916 12.7921 12.0118 13.0719 11.6666 13.0719H4.99996C4.65478 13.0719 4.37496 12.7921 4.37496 12.4469ZM4.37496 15.3636C4.37496 15.0184 4.65478 14.7386 4.99996 14.7386H9.58329C9.92847 14.7386 10.2083 15.0184 10.2083 15.3636C10.2083 15.7088 9.92847 15.9886 9.58329 15.9886H4.99996C4.65478 15.9886 4.37496 15.7088 4.37496 15.3636Z" fill="#01ACF0"/>
<path d="M16.1264 6.71082L12.8274 3.74173C11.8875 2.89584 11.4176 2.47289 10.841 2.25163L10.8333 4.53036C10.8333 6.49455 10.8333 7.47664 11.4435 8.08683C12.0537 8.69703 13.0358 8.69703 15 8.69703H17.9834C17.6812 8.11018 17.1403 7.62331 16.1264 6.71082Z" fill="#01ACF0"/>
</svg>
