<svg fill="none" height="40" viewBox="0 0 41 40" width="41" xmlns="http://www.w3.org/2000/svg">
    <path
        d="M20.5 0C16.5444 0 12.6776 1.17298 9.3886 3.37061C6.09962 5.56823 3.53617 8.69181 2.02242 12.3463C0.508666 16.0008 0.112599 20.0222 0.884303 23.9018C1.65601 27.7814 3.56082 31.3451 6.35787 34.1421C9.15492 36.9392 12.7186 38.844 16.5982 39.6157C20.4778 40.3874 24.4991 39.9913 28.1537 38.4776C31.8082 36.9638 34.9318 34.4004 37.1294 31.1114C39.327 27.8224 40.5 23.9556 40.5 20C40.4898 14.6988 38.3794 9.61762 34.6309 5.86909C30.8824 2.12057 25.8012 0.0101653 20.5 0ZM30.0192 16.5L18.75 27.2692C18.4587 27.5433 18.0731 27.6948 17.6731 27.6923C17.4776 27.6951 17.2835 27.6592 17.1019 27.5865C16.9204 27.5139 16.755 27.4061 16.6154 27.2692L10.9808 21.8846C10.8245 21.7483 10.6974 21.5817 10.6071 21.395C10.5168 21.2083 10.4652 21.0052 10.4554 20.798C10.4456 20.5909 10.4778 20.3839 10.5501 20.1894C10.6223 19.995 10.7331 19.8172 10.8758 19.6667C11.0186 19.5162 11.1902 19.3962 11.3805 19.3137C11.5708 19.2312 11.7759 19.1881 11.9833 19.1869C12.1907 19.1857 12.3962 19.2264 12.5874 19.3067C12.7787 19.3869 12.9517 19.505 13.0962 19.6538L17.6731 24.0192L27.9038 14.2692C28.203 14.0082 28.5914 13.873 28.988 13.8918C29.3845 13.9105 29.7584 14.0818 30.0316 14.3699C30.3048 14.658 30.456 15.0405 30.4537 15.4374C30.4514 15.8344 30.2957 16.2151 30.0192 16.5Z"
        fill="#01ACF0" />
</svg>
