<svg fill="none" height="46" viewBox="0 0 45 46" width="45" xmlns="http://www.w3.org/2000/svg">
    <path
        d="M28.8795 40.25V26.8993H33.2526L33.9071 21.7091H28.8795V18.3955C28.8795 16.8928 29.2875 15.8687 31.3956 15.8687L34.0843 15.8675V11.2255C33.6191 11.1623 32.0233 11.0209 30.1665 11.0209C26.2899 11.0209 23.6362 13.4396 23.6362 17.8816V21.7091H19.2519V26.8993H23.6362V40.25H7.5C6.46447 40.25 5.625 39.3919 5.625 38.3333V7.66667C5.625 6.60813 6.46447 5.75 7.5 5.75H37.5C38.5356 5.75 39.375 6.60813 39.375 7.66667V38.3333C39.375 39.3919 38.5356 40.25 37.5 40.25H28.8795Z"
        fill="#0064FB" />
</svg>
