<svg fill="none" height="24" viewBox="0 0 24 24" width="24" xmlns="http://www.w3.org/2000/svg">
    <path
        d="M13.9549 5.18353L18.9328 9.60827C19.8634 10.4355 20.3286 10.849 20.5001 11.3374C20.6507 11.7663 20.6507 12.2337 20.5001 12.6625C20.3286 13.1509 19.8634 13.5645 18.9328 14.3917L13.9549 18.8164C13.5326 19.1918 13.3215 19.3795 13.1422 19.3862C12.9864 19.392 12.8367 19.3249 12.7376 19.2045C12.6235 19.066 12.6235 18.7835 12.6235 18.2185V15.4286C10.1954 15.4286 7.63081 16.2084 5.75819 17.5928C4.7833 18.3135 4.29583 18.6738 4.11017 18.6596C3.92919 18.6458 3.81434 18.5751 3.72044 18.4197C3.62411 18.2604 3.70919 17.7625 3.87936 16.7667C4.98434 10.3005 9.43431 8.57141 12.6235 8.57141V5.78146C12.6235 5.21644 12.6235 4.93393 12.7376 4.79543C12.8367 4.67511 12.9864 4.60792 13.1422 4.61375C13.3215 4.62047 13.5326 4.80815 13.9549 5.18353Z"
        fill="#01ACF0" />
</svg>
