<svg fill="none" height="48" viewBox="0 0 48 48" width="48" xmlns="http://www.w3.org/2000/svg">
    <path
        d="M26.0562 4.00098C28.307 4.0047 29.4476 4.01662 30.4332 4.04596L30.8214 4.05864C31.2698 4.07458 31.7122 4.09458 32.2456 4.11958C34.3738 4.21792 35.8256 4.55458 37.1006 5.04958C38.4188 5.55792 39.5322 6.24458 40.6438 7.35626C41.7538 8.46792 42.4406 9.58458 42.9506 10.8996C43.4438 12.1729 43.7806 13.6263 43.8806 15.7546C43.9044 16.2879 43.9236 16.7303 43.9394 17.1788L43.952 17.567C43.9812 18.5525 43.9946 19.6932 43.9988 21.9441L44.0004 23.4353C44.0006 23.6175 44.0006 23.8055 44.0006 23.9995L44.0004 24.5637L43.9992 26.0551C43.9954 28.3059 43.9836 29.4467 43.9542 30.4321L43.9414 30.8203C43.9256 31.2689 43.9056 31.7113 43.8806 32.2445C43.7822 34.3729 43.4438 35.8245 42.9506 37.0995C42.4422 38.4179 41.7538 39.5313 40.6438 40.6429C39.5322 41.7529 38.4138 42.4395 37.1006 42.9495C35.8256 43.4429 34.3738 43.7795 32.2456 43.8795C31.7122 43.9033 31.2698 43.9227 30.8214 43.9383L30.4332 43.9509C29.4476 43.9803 28.307 43.9935 26.0562 43.9979L24.5648 43.9995C24.3826 43.9995 24.1946 43.9995 24.0006 43.9995H23.4364L21.945 43.9981C19.6942 43.9945 18.5534 43.9825 17.5679 43.9531L17.1798 43.9405C16.7313 43.9245 16.2889 43.9045 15.7556 43.8795C13.6272 43.7813 12.1772 43.4429 10.9006 42.9495C9.58387 42.4413 8.46887 41.7529 7.35721 40.6429C6.24555 39.5313 5.56055 38.4129 5.05055 37.0995C4.55555 35.8245 4.22055 34.3729 4.12055 32.2445C4.09679 31.7113 4.07741 31.2689 4.06171 30.8203L4.04913 30.4321C4.01987 29.4467 4.00653 28.3059 4.00221 26.0551L4.00195 21.9441C4.00567 19.6932 4.01757 18.5525 4.04691 17.567L4.05961 17.1788C4.07555 16.7303 4.09555 16.2879 4.12055 15.7546C4.21887 13.6246 4.55555 12.1746 5.05055 10.8996C5.55887 9.58292 6.24555 8.46792 7.35721 7.35626C8.46887 6.24458 9.58555 5.55958 10.9006 5.04958C12.1756 4.55458 13.6256 4.21958 15.7556 4.11958C16.2889 4.09584 16.7313 4.07646 17.1798 4.06076L17.5679 4.04818C18.5534 4.0189 19.6942 4.00556 21.945 4.00124L26.0562 4.00098ZM24.0006 13.9996C18.4748 13.9996 14.0006 18.4786 14.0006 23.9995C14.0006 29.5253 18.4796 33.9995 24.0006 33.9995C29.5264 33.9995 34.0006 29.5205 34.0006 23.9995C34.0006 18.4738 29.5214 13.9996 24.0006 13.9996ZM24.0006 17.9996C27.3144 17.9996 30.0006 20.6849 30.0006 23.9995C30.0006 27.3133 27.3152 29.9995 24.0006 29.9995C20.6868 29.9995 18.0006 27.3143 18.0006 23.9995C18.0006 20.6857 20.6858 17.9996 24.0006 17.9996ZM34.5006 10.9996C33.122 10.9996 32.0006 12.1194 32.0006 13.4979C32.0006 14.8764 33.1204 15.9979 34.5006 15.9979C35.879 15.9979 37.0006 14.8781 37.0006 13.4979C37.0006 12.1194 35.8772 10.9979 34.5006 10.9996Z"
        fill="#DB00FF" />
</svg>
