<svg fill="none" height="25" viewBox="0 0 24 25" width="24" xmlns="http://www.w3.org/2000/svg">
    <path clip-rule="evenodd" d="M3.5 9.65839L3.5 14.5233C3.5 16.8166 3.5 17.9632 4.22161 18.6757C4.87719 19.3229 5.89578 19.3822 7.81846 19.3876C7.71686 18.7132 7.69563 17.9076 7.69029 16.9597C7.68802 16.5567 8.01709 16.2282 8.42529 16.226C8.83348 16.2237 9.16624 16.5486 9.16851 16.9516C9.17451 18.0156 9.20249 18.7697 9.30898 19.3421C9.41158 19.8935 9.57634 20.2127 9.81626 20.4496C10.089 20.7189 10.4719 20.8945 11.1951 20.9905C11.9395 21.0893 12.9261 21.0908 14.3407 21.0908H15.3262C16.7407 21.0908 17.7273 21.0893 18.4717 20.9905C19.1949 20.8945 19.5778 20.7189 19.8505 20.4496C20.1233 20.1803 20.3011 19.8023 20.3983 19.0883C20.4984 18.3534 20.5 17.3793 20.5 15.9827V8.19893C20.5 6.80231 20.4984 5.82825 20.3983 5.09332C20.3011 4.37937 20.1233 4.0013 19.8505 3.73202C19.5778 3.46274 19.1949 3.28717 18.4717 3.19118C17.7273 3.09237 16.7407 3.09082 15.3262 3.09082H14.3407C12.9261 3.09082 11.9395 3.09237 11.1951 3.19118C10.4719 3.28717 10.089 3.46274 9.81626 3.73202C9.57634 3.96889 9.41158 4.2881 9.30898 4.83959C9.20249 5.41194 9.17451 6.16607 9.16851 7.23002C9.16624 7.63303 8.83348 7.95792 8.42529 7.95567C8.01709 7.95343 7.68802 7.62491 7.69029 7.22189C7.69563 6.27404 7.71686 5.4684 7.81846 4.79407C5.89578 4.79949 4.87719 4.85871 4.22161 5.50597C3.5 6.21841 3.5 7.36507 3.5 9.65839ZM5.93385 12.6068C5.6452 12.3218 5.6452 11.8598 5.93385 11.5748L7.90484 9.62888C8.19348 9.3439 8.66147 9.3439 8.95011 9.62888C9.23876 9.91386 9.23876 10.3759 8.95011 10.6609L8.24088 11.3611L15.3259 11.3611C15.7341 11.3611 16.0651 11.6878 16.0651 12.0908C16.0651 12.4938 15.7341 12.8205 15.3259 12.8205L8.24088 12.8206L8.95011 13.5208C9.23876 13.8057 9.23876 14.2678 8.95011 14.5528C8.66147 14.8377 8.19348 14.8377 7.90484 14.5528L5.93385 12.6068Z"
        fill="#FF0000"
        fill-rule="evenodd" />
</svg>
