<svg fill="none" height="24" viewBox="0 0 25 24" width="25" xmlns="http://www.w3.org/2000/svg">
    <g clip-path="url(#clip0_43_5217)" id="patient 1">
        <g id="Group">
            <g id="Group_2">
                <path d="M16.2486 12.4885H1.75246C1.75246 12.4885 0.728149 15.5765 0.728149 16.7231C0.728149 17.8697 3.06356 20.1629 9.00051 20.1629C14.9375 20.1629 17.2729 17.8697 17.2729 16.7231C17.2729 15.5765 16.2486 12.4885 16.2486 12.4885Z"
                    fill="#636978"
                    id="Vector" />
            </g>
            <g id="Group_3">
                <path d="M8.99601 1.01409C8.36451 1.01409 7.75097 1.09041 7.16343 1.23333C6.95662 0.514313 6.40622 0 5.75953 0C4.93579 0 4.26801 0.834375 4.26801 1.86356C4.26801 1.93917 4.27204 2.01356 4.27903 2.08683C3.5932 1.63416 2.75911 1.62652 2.26715 2.11847C1.68468 2.70094 1.80248 3.76313 2.53026 4.49091C2.53279 4.49344 2.53547 4.49578 2.53804 4.49831C1.73653 5.71603 1.26965 7.17361 1.26965 8.74045V11.1668H16.7224V8.74045C16.7223 4.47328 13.2631 1.01409 8.99601 1.01409Z"
                    fill="#707789"
                    id="Vector_2" />
            </g>
            <g id="Group_4">
                <path d="M8.99575 5.89884C5.94948 4.29984 7.16336 1.23797 7.16336 1.23797C6.95655 0.518951 6.40619 0.00463867 5.7595 0.00463867C4.93577 0.00463867 4.26798 0.839014 4.26798 1.8682C4.26798 1.94381 4.27202 2.0182 4.279 2.09147C3.59317 1.6388 2.75908 1.63115 2.26713 2.12311C1.68466 2.70558 1.80245 3.76776 2.53019 4.49555C2.53272 4.49808 2.53539 4.50042 2.53792 4.50295C1.73641 5.72067 1.26953 7.17825 1.26953 8.74509V10.2056H8.99575V5.89884Z"
                    fill="#636978"
                    id="Vector_3" />
            </g>
            <g id="Group_5">
                <path d="M14.7343 22.8511C14.2005 20.1722 11.8363 18.1533 9.00047 18.1533C6.16467 18.1533 3.80044 20.1722 3.26663 22.8511C3.14808 23.4462 3.60835 24 4.21519 24H13.7858C14.3926 24 14.8529 23.4462 14.7343 22.8511Z"
                    fill="#FF9B87"
                    id="Vector_4" />
            </g>
            <g id="Group_6">
                <path d="M10.3786 18.317C9.93675 18.2102 9.47531 18.1533 9.00061 18.1533C6.16481 18.1533 3.80057 20.1722 3.26676 22.8511C3.14817 23.4462 3.60848 24 4.21532 24H5.90939C5.90934 21.2455 7.81434 18.9363 10.3786 18.317Z"
                    fill="#FF8870"
                    id="Vector_5" />
            </g>
            <g id="Group_7">
                <g id="Group_8">
                    <path d="M9.00055 20.724C10.0815 20.724 10.9578 19.8477 10.9578 18.7668C10.9578 17.6858 10.0815 16.8096 9.00055 16.8096C7.91961 16.8096 7.04333 17.6858 7.04333 18.7668C7.04333 19.8477 7.91961 20.724 9.00055 20.724Z"
                        fill="#FFE4C2"
                        id="Vector_6" />
                </g>
                <g id="Group_9">
                    <path d="M10.8794 18.2187C10.6424 17.4046 9.89118 16.8096 9.00055 16.8096C7.91962 16.8096 7.04333 17.6859 7.04333 18.7668C7.04333 19.2373 7.20946 19.6689 7.48612 20.0065C8.36446 19.0678 9.54838 18.4188 10.8794 18.2187Z"
                        fill="#F2D1A5"
                        id="Vector_7" />
                </g>
            </g>
            <g id="Group_10">
                <path d="M16.0088 13.5073C16.9711 13.5073 17.7512 12.7272 17.7512 11.7649C17.7512 10.8027 16.9711 10.0226 16.0088 10.0226C15.0466 10.0226 14.2665 10.8027 14.2665 11.7649C14.2665 12.7272 15.0466 13.5073 16.0088 13.5073Z"
                    fill="#FFE4C2"
                    id="Vector_8" />
            </g>
            <g id="Group_11">
                <path d="M1.99234 13.5073C2.95461 13.5073 3.73469 12.7272 3.73469 11.7649C3.73469 10.8027 2.95461 10.0226 1.99234 10.0226C1.03007 10.0226 0.25 10.8027 0.25 11.7649C0.25 12.7272 1.03007 13.5073 1.99234 13.5073Z"
                    fill="#F2D1A5"
                    id="Vector_9" />
            </g>
            <g id="Group_12">
                <path d="M15.7875 10.037C11.6621 10.037 9.00054 5.89417 9.00054 5.89417C9.00054 5.89417 6.33902 10.037 2.2136 10.037C2.07335 10.5896 1.99854 11.1684 1.99854 11.7647C1.99854 15.6318 5.13344 18.7667 9.00054 18.7667C12.8676 18.7667 16.0025 15.6318 16.0025 11.7647C16.0025 11.1684 15.9278 10.5896 15.7875 10.037Z"
                    fill="#FFF2DE"
                    id="Vector_10" />
            </g>
            <g id="Group_13">
                <path d="M4.41314 11.7647C4.41314 10.968 4.54645 10.2026 4.79156 9.48914C4.01766 9.82139 3.15384 10.0369 2.21367 10.037C2.07342 10.5896 1.99866 11.1684 1.99866 11.7647C1.99866 15.6318 5.13356 18.7667 9.00066 18.7667C9.41236 18.7667 9.81567 18.7308 10.2079 18.6627C6.91617 18.0906 4.41314 15.2201 4.41314 11.7647Z"
                    fill="#FFE4C2"
                    id="Vector_11" />
            </g>
            <g id="Group_14">
                <path d="M11.4151 8.3087H6.58611C5.25261 8.3087 4.17163 7.22772 4.17163 5.89422C4.17163 4.56072 5.25261 3.47974 6.58611 3.47974H11.4151C12.7486 3.47974 13.8296 4.56072 13.8296 5.89422C13.8296 7.22772 12.7486 8.3087 11.4151 8.3087Z"
                    fill="#BFE1FF"
                    id="Vector_12" />
            </g>
            <g id="Group_15">
                <path d="M7.06902 5.89422C7.06902 4.56072 8.15001 3.47974 9.48351 3.47974H6.58611C5.25261 3.47974 4.17163 4.56072 4.17163 5.89422C4.17163 7.22772 5.25261 8.3087 6.58611 8.3087H9.48351C8.15001 8.3087 7.06902 7.22772 7.06902 5.89422Z"
                    fill="#A3D4FF"
                    id="Vector_13" />
            </g>
            <g id="Group_16">
                <g id="Group_17">
                    <g id="Group_18">
                        <path d="M4.98923 14.2937C5.80666 14.2937 6.46931 13.766 6.46931 13.1151C6.46931 12.4641 5.80666 11.9364 4.98923 11.9364C4.17181 11.9364 3.50916 12.4641 3.50916 13.1151C3.50916 13.766 4.17181 14.2937 4.98923 14.2937Z"
                            fill="#FFA1AC"
                            id="Vector_14" />
                    </g>
                    <g id="Group_19">
                        <path d="M13.0119 14.2862C13.8293 14.2862 14.492 13.7585 14.492 13.1075C14.492 12.4565 13.8293 11.9288 13.0119 11.9288C12.1944 11.9288 11.5317 12.4565 11.5317 13.1075C11.5317 13.7585 12.1944 14.2862 13.0119 14.2862Z"
                            fill="#FFA1AC"
                            id="Vector_15" />
                    </g>
                </g>
                <g id="Group_20">
                    <path d="M5.8501 12.2183C5.55123 12.2183 5.26707 12.089 5.07029 11.8637C4.94256 11.7174 4.9576 11.4954 5.10385 11.3676C5.25015 11.24 5.4722 11.255 5.59993 11.4012C5.66317 11.4737 5.75429 11.5152 5.85001 11.5152H5.85029C5.94606 11.5151 6.03728 11.4734 6.10042 11.4008C6.22782 11.2542 6.44992 11.2388 6.5964 11.3662C6.74288 11.4936 6.7584 11.7157 6.63099 11.8622C6.43445 12.0882 6.15015 12.218 5.85099 12.2184C5.85071 12.2183 5.85038 12.2183 5.8501 12.2183Z"
                        fill="#495560"
                        id="Vector_16" />
                </g>
                <g id="Group_21">
                    <path d="M12.1475 12.2124C11.8487 12.2124 11.5646 12.0831 11.3678 11.8577C11.24 11.7115 11.2551 11.4894 11.4013 11.3617C11.5476 11.234 11.7697 11.2491 11.8974 11.3953C11.9607 11.4677 12.0518 11.5093 12.1475 11.5093H12.1478C12.2436 11.5092 12.3348 11.4675 12.3979 11.3949C12.5254 11.2483 12.7475 11.233 12.8939 11.3604C13.0404 11.4878 13.0559 11.7099 12.9284 11.8563C12.7318 12.0824 12.4475 12.2122 12.1484 12.2124C12.1482 12.2124 12.1478 12.2124 12.1475 12.2124Z"
                        fill="#495560"
                        id="Vector_17" />
                </g>
                <g id="Group_22">
                    <path d="M9.79571 12.7748C9.6976 12.7748 9.60006 12.7339 9.53054 12.6542C9.39676 12.5007 9.20354 12.4126 9.00053 12.4126C8.79746 12.4126 8.60429 12.5007 8.47051 12.6542C8.34287 12.8005 8.12082 12.8157 7.97448 12.6883C7.82809 12.5607 7.81285 12.3386 7.9404 12.1922C8.20778 11.8854 8.59417 11.7095 9.00053 11.7095C9.40684 11.7095 9.79328 11.8854 10.0606 12.1922C10.1882 12.3386 10.1729 12.5607 10.0265 12.6883C9.95992 12.7463 9.87765 12.7748 9.79571 12.7748Z"
                        fill="#495560"
                        id="Vector_18" />
                </g>
            </g>
            <g id="Group_23">
                <path d="M21.3526 10.9884C22.9528 10.9884 24.25 9.69118 24.25 8.09099C24.25 6.49081 22.9528 5.1936 21.3526 5.1936C19.7524 5.1936 18.4552 6.49081 18.4552 8.09099C18.4552 9.69118 19.7524 10.9884 21.3526 10.9884Z"
                    fill="#F5FAFC"
                    id="Vector_19" />
            </g>
            <g id="Group_24">
                <path d="M20.3868 10.0226C20.3868 9.48918 20.8192 9.05676 21.3526 9.05676V5.1936C19.7524 5.1936 18.4552 6.49082 18.4552 8.09099C18.4552 9.69117 19.7524 10.9884 21.3526 10.9884C20.8192 10.9884 20.3868 10.556 20.3868 10.0226Z"
                    fill="#E1F1FA"
                    id="Vector_20" />
            </g>
            <g id="Group_25">
                <path d="M21.3527 0C20.8193 0 20.3868 0.432422 20.3868 0.965813V2.89739H22.3184V0.965813C22.3185 0.432422 21.886 0 21.3527 0Z"
                    fill="#E1F1FA"
                    id="Vector_21" />
            </g>
            <g id="Group_26">
                <path d="M21.3527 1.93152C20.8193 1.93152 20.3868 2.36394 20.3868 2.89733V8.09089C20.3868 8.62428 20.8193 9.05671 21.3527 9.05671C21.886 9.05671 22.3185 8.62428 22.3185 8.09089V2.89733C22.3185 2.36394 21.886 1.93152 21.3527 1.93152Z"
                    fill="#FF9B87"
                    id="Vector_22" />
            </g>
            <g id="Group_27">
                <path d="M21.3527 6.32751C20.8193 6.32751 20.3868 5.89508 20.3868 5.36169V8.09094C20.3868 8.62433 20.8193 9.05676 21.3527 9.05676C21.886 9.05676 22.3185 8.62433 22.3185 8.09094V5.36169C22.3185 5.89508 21.886 6.32751 21.3527 6.32751Z"
                    fill="#FF8870"
                    id="Vector_23" />
            </g>
            <g id="Group_28">
                <g id="Group_29">
                    <path d="M9.00046 6.25642C9.20048 6.25642 9.36262 6.09427 9.36262 5.89426C9.36262 5.69425 9.20048 5.5321 9.00046 5.5321C8.80045 5.5321 8.63831 5.69425 8.63831 5.89426C8.63831 6.09427 8.80045 6.25642 9.00046 6.25642Z"
                        fill="#87C7FF"
                        id="Vector_24" />
                </g>
                <g id="Group_30">
                    <path d="M11.1736 6.25642C11.3736 6.25642 11.5357 6.09427 11.5357 5.89426C11.5357 5.69425 11.3736 5.5321 11.1736 5.5321C10.9735 5.5321 10.8114 5.69425 10.8114 5.89426C10.8114 6.09427 10.9735 6.25642 11.1736 6.25642Z"
                        fill="#87C7FF"
                        id="Vector_25" />
                </g>
                <g id="Group_31">
                    <path d="M6.82749 6.25642C7.0275 6.25642 7.18964 6.09427 7.18964 5.89426C7.18964 5.69425 7.0275 5.5321 6.82749 5.5321C6.62747 5.5321 6.46533 5.69425 6.46533 5.89426C6.46533 6.09427 6.62747 6.25642 6.82749 6.25642Z"
                        fill="#87C7FF"
                        id="Vector_26" />
                </g>
                <g id="Group_32">
                    <path d="M10.0822 5.2906C10.2823 5.2906 10.4444 5.12845 10.4444 4.92844C10.4444 4.72843 10.2823 4.56628 10.0822 4.56628C9.88224 4.56628 9.72009 4.72843 9.72009 4.92844C9.72009 5.12845 9.88224 5.2906 10.0822 5.2906Z"
                        fill="#87C7FF"
                        id="Vector_27" />
                </g>
                <g id="Group_33">
                    <path d="M7.90928 5.2906C8.10929 5.2906 8.27143 5.12845 8.27143 4.92844C8.27143 4.72843 8.10929 4.56628 7.90928 4.56628C7.70926 4.56628 7.54712 4.72843 7.54712 4.92844C7.54712 5.12845 7.70926 5.2906 7.90928 5.2906Z"
                        fill="#87C7FF"
                        id="Vector_28" />
                </g>
                <g id="Group_34">
                    <path d="M10.0822 7.22212C10.2823 7.22212 10.4444 7.05997 10.4444 6.85996C10.4444 6.65995 10.2823 6.4978 10.0822 6.4978C9.88224 6.4978 9.72009 6.65995 9.72009 6.85996C9.72009 7.05997 9.88224 7.22212 10.0822 7.22212Z"
                        fill="#87C7FF"
                        id="Vector_29" />
                </g>
                <g id="Group_35">
                    <path d="M7.90928 7.22212C8.10929 7.22212 8.27143 7.05997 8.27143 6.85996C8.27143 6.65995 8.10929 6.4978 7.90928 6.4978C7.70926 6.4978 7.54712 6.65995 7.54712 6.85996C7.54712 7.05997 7.70926 7.22212 7.90928 7.22212Z"
                        fill="#87C7FF"
                        id="Vector_30" />
                </g>
            </g>
        </g>
    </g>
    <defs>
        <clipPath id="clip0_43_5217">
            <rect fill="white" height="24" transform="translate(0.25)" width="24" />
        </clipPath>
    </defs>
</svg>
