<svg fill="none" height="20" viewBox="0 0 20 20" width="20" xmlns="http://www.w3.org/2000/svg">
    <path
        d="M15.3036 9.14937C16.6053 10.4511 16.6053 12.5616 15.3036 13.8634L10.5896 18.5775C10.2642 18.9029 9.7365 18.9029 9.41108 18.5775L4.69702 13.8634C3.39527 12.5616 3.39527 10.4511 4.69702 9.14937C5.99876 7.84762 8.10931 7.84762 9.41108 9.14937L9.99975 9.73804L10.5896 9.14937C11.8913 7.84762 14.0018 7.84762 15.3036 9.14937ZM10.0003 0.833374C11.8412 0.833374 13.3337 2.32576 13.3337 4.16671C13.3337 6.00766 11.8412 7.50004 10.0003 7.50004C8.15937 7.50004 6.66698 6.00766 6.66698 4.16671C6.66698 2.32576 8.15937 0.833374 10.0003 0.833374Z"
        fill="#01ACF0" />
</svg>
