<svg width="20" height="21" viewBox="0 0 20 21" fill="none" xmlns="http://www.w3.org/2000/svg">
<path d="M9.50001 15.226L9.50004 15.2259L15.6633 9.06273C14.8244 8.71361 13.8309 8.14014 12.8913 7.20053C11.9516 6.26078 11.3781 5.26712 11.029 4.42822L4.86565 10.5915L4.8656 10.5916C4.38467 11.0725 4.14418 11.313 3.93737 11.5782C3.6934 11.891 3.48424 12.2294 3.31358 12.5875C3.1689 12.8911 3.06136 13.2137 2.84626 13.859L1.712 17.2618C1.60615 17.5793 1.6888 17.9294 1.92549 18.1661C2.16217 18.4028 2.51228 18.4854 2.82983 18.3796L6.23261 17.2453C6.87789 17.0302 7.20054 16.9227 7.50411 16.778C7.8622 16.6074 8.20064 16.3982 8.51343 16.1542C8.77858 15.9474 9.01908 15.7069 9.50001 15.226Z" fill="#01ACF0"/>
<path d="M17.3735 7.35251C18.6532 6.07276 18.6532 3.99787 17.3735 2.71812C16.0937 1.43836 14.0188 1.43836 12.7391 2.71812L11.9999 3.45731C12.01 3.48788 12.0205 3.51887 12.0314 3.55026C12.3023 4.33121 12.8135 5.35497 13.7752 6.31665C14.7369 7.27833 15.7607 7.78954 16.5416 8.06048C16.5729 8.07132 16.6037 8.08177 16.6341 8.09185L17.3735 7.35251Z" fill="#01ACF0"/>
</svg>
