<svg width="25" height="26" viewBox="0 0 25 26" fill="none" xmlns="http://www.w3.org/2000/svg">
<path d="M18.031 17.4596L22.3137 21.7423L20.8995 23.1565L16.6168 18.8738C15.0769 20.1058 13.124 20.8428 11 20.8428C6.032 20.8428 2 16.8108 2 11.8428C2 6.87477 6.032 2.84277 11 2.84277C15.968 2.84277 20 6.87477 20 11.8428C20 13.9668 19.263 15.9197 18.031 17.4596ZM16.0247 16.7176C17.2475 15.4574 18 13.7384 18 11.8428C18 7.97527 14.8675 4.84277 11 4.84277C7.1325 4.84277 4 7.97527 4 11.8428C4 15.7103 7.1325 18.8428 11 18.8428C12.8956 18.8428 14.6146 18.0903 15.8748 16.8675L16.0247 16.7176Z" fill="#01ACF0"/>
</svg>
