<svg fill="none" height="20" viewBox="0 0 20 20" width="20" xmlns="http://www.w3.org/2000/svg">
    <g clip-path="url(#clip0_48_7583)">
        <path
            d="M19.1212 4L18.697 3.63636C18.7576 3.36363 18.6667 3.0303 18.4545 2.69697C18.2424 2.39394 17.9394 2.09091 17.697 1.9697C17.1515 1.69697 16.4545 1.93939 16.1515 2.57576C15.8485 3.18182 16.0606 3.90909 16.6364 4.18182C16.8485 4.27273 17.1515 4.36363 17.4848 4.36363C17.7879 4.36363 18.1212 4.30303 18.3636 4.15151L18.7273 4.48485C19.1818 4.87879 19.2121 5.57576 18.8182 6L16.1818 8.66667C15.7273 8.42424 15.1515 8.51515 14.7879 8.90909C13.8485 9.90909 12.6061 9.78788 11.8182 9.36363C10.9394 8.87879 10.5455 8.0303 10.7879 7.0303C10.8485 6.72727 10.7879 6.39394 10.6364 6.12121C10.5152 5.93939 10.3333 5.78788 10.1212 5.69697C10.1818 5.27273 9.93939 7.12121 10.6061 2.09091C10.7273 1.51515 11.303 1.12121 11.8788 1.24242L12.4848 1.36363C12.5152 1.54545 12.6061 1.75757 12.7273 1.9697C12.9394 2.27273 13.2121 2.57576 13.4848 2.69697C14.0606 2.9697 14.7576 2.69697 15.0303 2.09091C15.3333 1.48485 15.1212 0.757574 14.5455 0.484847C14.0606 0.242423 12.9697 0.21212 12.5758 0.757574L11.9394 0.636362C11.0303 0.454544 10.1515 1.0303 9.93939 1.93939V2L9.45455 5.57576C9.27273 5.60606 9.06061 5.66667 8.90909 5.75757C8.63636 5.93939 8.45455 6.18182 8.39394 6.51515C8 8.27273 8.54545 9.87879 9.84848 10.9394C9.72727 11.2727 9.60606 11.6061 9.48485 11.9091C8.78788 11.697 8.18182 11.5455 7.63636 11.3939C6.21212 11.0303 4.54545 10.6667 3 11.303C0.484848 12.303 -0.515152 15.4545 1.0303 17.7879C2.30303 19.697 4.72727 20.1515 6.75758 19.2727C7.9697 18.7273 9.06061 17.7273 9.90909 16.3636C10.1818 15.9394 10.4848 15.3333 10.8182 14.5152C11.8485 14.8485 13.5152 15.3939 14.5152 15.7273C14.6364 16.9091 15.6364 17.8182 16.8485 17.8182C18.1515 17.8182 19.1818 16.7576 19.1818 15.4545C19.1818 14.1515 18.1212 13.0909 16.8485 13.0909C16.2424 13.0909 15.697 13.3333 15.2727 13.697C14.2727 13.3333 12.6364 12.8182 11.6061 12.4848C11.697 12.2727 11.7576 12.0606 11.8485 11.8485C12.2121 11.9394 12.6061 11.9697 13 11.9697C14.303 11.9697 15.5758 11.4545 16.5152 10.4848C16.7273 10.2424 16.8485 9.93939 16.8485 9.63636C16.8485 9.42424 16.7879 9.21212 16.6667 9.0303L19.303 6.36363C19.8788 5.69697 19.8182 4.63636 19.1212 4ZM8.30303 15.3636C7.84848 16.0909 7.09091 17.0606 5.9697 17.5455C4.78788 18.0606 3.30303 17.9091 2.51515 16.7273C1.63636 15.3939 2.21212 13.5455 3.69697 12.9394C4.75758 12.5151 6.09091 12.8182 7.18182 13.1212C7.81818 13.303 8.45455 13.4545 9.09091 13.6667C8.78788 14.4242 8.51515 15 8.30303 15.3636ZM16.8485 14.3333C17.4848 14.3333 17.9697 14.8485 17.9697 15.4545C17.9697 16.0606 17.4545 16.5758 16.8485 16.5758C16.2121 16.5758 15.7273 16.0606 15.7273 15.4545C15.7273 14.8485 16.2121 14.3333 16.8485 14.3333Z"
            fill="#01ACF0" />
    </g>
    <defs>
        <clipPath id="clip0_48_7583">
            <rect fill="white" height="20" width="20" />
        </clipPath>
    </defs>
</svg>
