<svg width="33" height="32" viewBox="0 0 33 32" fill="none" xmlns="http://www.w3.org/2000/svg">
<path d="M4.57502 17.7495L25.6375 29.537C25.9885 29.7417 26.3926 29.8368 26.798 29.81C27.2033 29.7833 27.5915 29.636 27.9125 29.387C28.2404 29.1284 28.4784 28.773 28.5929 28.3713C28.7073 27.9697 28.6923 27.5422 28.55 27.1495L25.0375 17.337C25.002 17.2392 24.9375 17.1545 24.8527 17.0942C24.7678 17.0339 24.6666 17.0009 24.5625 16.9995L15.5375 16.9995C15.278 17.0037 15.0266 16.9092 14.8341 16.7352C14.6415 16.5612 14.5221 16.3206 14.5 16.062C14.4915 15.9256 14.511 15.7888 14.5574 15.6601C14.6038 15.5315 14.6761 15.4138 14.7699 15.3142C14.8636 15.2146 14.9767 15.1353 15.1023 15.0812C15.2279 15.0271 15.3633 14.9993 15.5 14.9995L24.5625 14.9995C24.6666 14.9982 24.7678 14.9652 24.8527 14.9049C24.9375 14.8446 25.002 14.7599 25.0375 14.662L28.55 4.84954C28.6554 4.54725 28.6872 4.22418 28.6427 3.90716C28.5981 3.59013 28.4786 3.2883 28.2941 3.02673C28.1095 2.76515 27.8652 2.55139 27.5814 2.40317C27.2977 2.25496 26.9827 2.17658 26.6625 2.17454C26.3219 2.17607 25.9869 2.26197 25.6875 2.42454L4.57503 14.2495C4.26572 14.4252 4.0085 14.6797 3.82955 14.9871C3.65061 15.2945 3.55633 15.6438 3.55633 15.9995C3.55633 16.3552 3.65061 16.7046 3.82955 17.012C4.0085 17.3194 4.26572 17.5739 4.57502 17.7495Z" fill="#01ACF0"/>
</svg>
