<svg fill="none" height="17" viewBox="0 0 16 17" width="16" xmlns="http://www.w3.org/2000/svg">
    <path
        d="M12.3125 15.5C12.2073 15.5004 12.1046 15.4676 12.0191 15.4062L8 12.4925L3.98094 15.4062C3.89507 15.4685 3.79163 15.5019 3.68556 15.5015C3.57949 15.5011 3.47628 15.467 3.39087 15.4041C3.30546 15.3412 3.24227 15.2528 3.21043 15.1516C3.17859 15.0504 3.17975 14.9417 3.21375 14.8413L4.78125 10.1984L0.718749 7.4125C0.630752 7.35222 0.564337 7.26539 0.529208 7.16467C0.494079 7.06396 0.492077 6.95466 0.523494 6.85273C0.55491 6.7508 0.6181 6.66158 0.70383 6.59812C0.78956 6.53466 0.893337 6.50028 0.999999 6.5H6.01188L7.52438 1.84532C7.55696 1.74482 7.62054 1.65723 7.70598 1.59511C7.79143 1.53299 7.89436 1.49953 8 1.49953C8.10565 1.49953 8.20858 1.53299 8.29402 1.59511C8.37947 1.65723 8.44305 1.74482 8.47563 1.84532L9.98813 6.50157H15C15.1068 6.50151 15.2108 6.53566 15.2968 6.59899C15.3828 6.66233 15.4462 6.75154 15.4778 6.85355C15.5095 6.95555 15.5076 7.065 15.4725 7.16587C15.4374 7.26673 15.3709 7.35371 15.2828 7.41406L11.2188 10.1984L12.7853 14.84C12.8107 14.9151 12.8178 14.9953 12.8061 15.0737C12.7945 15.1522 12.7643 15.2267 12.7181 15.2912C12.6719 15.3557 12.611 15.4082 12.5405 15.4445C12.47 15.4808 12.3918 15.4999 12.3125 15.5Z"
        fill="#F0C324" />
</svg>
