<svg fill="none" height="20" viewBox="0 0 20 20" width="20" xmlns="http://www.w3.org/2000/svg">
    <g clip-path="url(#clip0_38_4164)" id="ticket 1">
        <path d="M0.488475 11.6669L6.0738 6.09108L11.6693 0.505208C12.321 -0.145453 13.3815 -0.145453 14.0333 0.505208L14.0489 0.520716C14.3306 0.802043 14.4393 1.21114 14.3326 1.58825C14.2687 1.81411 14.332 2.05719 14.4978 2.2227C14.6635 2.38817 14.9071 2.45133 15.1332 2.38762C15.5111 2.28114 15.921 2.38954 16.2028 2.67086L17.3418 3.80793C17.6235 4.08926 17.7322 4.49836 17.6255 4.87546C17.5616 5.10132 17.6249 5.34441 17.7906 5.50991C17.9564 5.67534 18.1999 5.73866 18.4261 5.67484C18.804 5.56835 19.2138 5.67675 19.4957 5.95808L19.5112 5.97351C20.1629 6.62417 20.1629 7.68284 19.5112 8.3335L13.9428 13.8922L8.33024 19.4953C8.01524 19.8097 7.59548 19.9829 7.14818 19.9829C6.70087 19.9829 6.28111 19.8097 5.96615 19.4953C5.6774 19.207 5.57381 18.7853 5.69584 18.3947C5.76795 18.1638 5.70654 17.9144 5.53576 17.7439C5.36494 17.5733 5.11502 17.5121 4.88389 17.584C4.49244 17.7058 4.07002 17.6024 3.78135 17.3142L2.67335 16.208C2.3846 15.9198 2.28101 15.4981 2.40304 15.1075C2.47515 14.8766 2.41374 14.6272 2.24296 14.4567C2.07214 14.2861 1.82222 14.2248 1.59109 14.2968C1.19964 14.4186 0.777263 14.3152 0.488553 14.027C0.173476 13.7125 0 13.2934 0 12.8469C0 12.4004 0.173476 11.9813 0.488475 11.6669Z"
            fill="#4596E6"
            id="Vector" />
        <path d="M0.488475 11.6669L6.0738 6.09106L13.9428 13.8922L8.33024 19.4952C8.01524 19.8097 7.59548 19.9829 7.14817 19.9829C6.70091 19.9829 6.28111 19.8097 5.96615 19.4952C5.6774 19.207 5.57381 18.7853 5.69584 18.3947C5.76795 18.1638 5.70654 17.9144 5.53576 17.7438C5.36494 17.5733 5.11502 17.5121 4.88389 17.584C4.49244 17.7058 4.07002 17.6023 3.78135 17.3141L2.67335 16.208C2.3846 15.9198 2.28101 15.4981 2.40304 15.1075C2.47515 14.8766 2.41374 14.6272 2.24296 14.4567C2.07214 14.2861 1.82222 14.2248 1.59109 14.2968C1.19964 14.4186 0.777263 14.3152 0.488553 14.0269C0.173476 13.7124 0 13.2934 0 12.8469C0 12.4004 0.173476 11.9813 0.488475 11.6669Z"
            fill="#006DF0"
            id="Vector_2" />
        <g id="Group">
            <path d="M15.7949 8.33699C15.9791 8.33699 16.1632 8.26676 16.3037 8.12621C16.5847 7.8452 16.5847 7.38957 16.3037 7.10856L14.5318 5.33665L12.7418 3.5467C12.4608 3.26568 12.0052 3.26568 11.7242 3.5467C11.4432 3.82771 11.4432 4.28334 11.7242 4.56435L13.2845 6.12466L15.286 8.12621C15.4266 8.26676 15.6108 8.33699 15.7949 8.33699Z"
                fill="#D7EBFF"
                id="Vector_3" />
            <path d="M13.3221 8.69463C13.5063 8.69463 13.6904 8.62439 13.8309 8.48385C14.1119 8.20283 14.1119 7.74721 13.8309 7.46619L13.1302 6.76549L12.4061 6.04143C12.1251 5.76042 11.6695 5.76046 11.3885 6.04143C11.1075 6.32245 11.1075 6.77807 11.3885 7.05909L11.9831 7.65362L12.8133 8.48381C12.9538 8.62432 13.1379 8.69463 13.3221 8.69463Z"
                fill="#D7EBFF"
                id="Vector_4" />
        </g>
        <g id="Group_2">
            <path d="M3.89238 11.4292L5.2832 10.0384C5.52737 9.7942 5.85269 9.65967 6.19909 9.65967C6.5455 9.65967 6.87077 9.7942 7.11499 10.0384L9.86267 12.7861C10.1068 13.0302 10.2414 13.3556 10.2414 13.702C10.2414 14.0484 10.1068 14.3736 9.86267 14.6179L8.47186 16.0087C8.22768 16.2528 7.90237 16.3874 7.55596 16.3874C7.20956 16.3874 6.88428 16.2528 6.64007 16.0087L3.89238 13.261C3.6482 13.0168 3.51367 12.6915 3.51367 12.3451C3.51367 11.9987 3.64816 11.6734 3.89238 11.4292Z"
                fill="#BDDEFF"
                id="Vector_5" />
            <path d="M11.7244 3.54682C12.0054 3.26581 12.461 3.26581 12.7421 3.54682L14.532 5.33677L13.5223 6.36236L11.7244 4.56447C11.4434 4.28346 11.4434 3.82783 11.7244 3.54682Z"
                fill="#BDDEFF"
                id="Vector_6" />
            <path d="M11.3887 6.04145C11.6697 5.76043 12.1254 5.76043 12.4064 6.04145L13.126 6.76106L12.1162 7.78664L11.3886 7.05914C11.1077 6.77809 11.1077 6.3225 11.3887 6.04145Z"
                fill="#BDDEFF"
                id="Vector_7" />
        </g>
    </g>
    <defs>
        <clipPath id="clip0_38_4164">
            <rect fill="white" height="20" width="20" />
        </clipPath>
    </defs>
</svg>
