<svg fill="none" height="46" viewBox="0 0 44 46" width="44" xmlns="http://www.w3.org/2000/svg">
    <path
        d="M40.7229 10.841C39.3234 11.4883 37.8391 11.9134 36.3194 12.1023C37.9205 11.1003 39.1186 9.52397 39.6904 7.667C38.186 8.60149 36.5393 9.25922 34.822 9.61158C33.3724 7.99477 31.3463 7.07855 29.2266 7.08106C24.9931 7.08106 21.5595 10.6696 21.5595 15.0975C21.5595 15.7257 21.6284 16.3349 21.7573 16.9227C15.3825 16.5872 9.73514 13.3978 5.95244 8.54744C5.27137 9.77078 4.91343 11.1613 4.91525 12.5768C4.91525 15.3577 6.26928 17.8123 8.32607 19.2493C7.10852 19.2091 5.91779 18.8653 4.85317 18.2464C4.852 18.2801 4.852 18.3137 4.852 18.3456C4.852 22.2305 7.49502 25.4712 11.0037 26.207C10.3451 26.3933 9.66593 26.4874 8.98375 26.4869C8.48829 26.4869 8.00748 26.4391 7.54012 26.3454C8.51641 29.5294 11.3463 31.8474 14.7026 31.911C11.9866 34.1395 8.63261 35.3486 5.17996 35.3434C4.5689 35.344 3.95834 35.3062 3.35156 35.2307C6.85675 37.5865 10.9368 38.8367 15.1038 38.8321C29.2079 38.8321 36.9197 26.6179 36.9197 16.0257C36.9197 15.6791 36.9116 15.3314 36.8969 14.9885C38.3979 13.8548 39.6935 12.4503 40.7229 10.841Z"
        fill="#47A9FF" />
</svg>
