<svg fill="none" height="24" viewBox="0 0 25 24" width="25" xmlns="http://www.w3.org/2000/svg">
    <path
        d="M13.0535 2.49392C12.9114 2.33852 12.7106 2.25 12.5 2.25C12.2894 2.25 12.0886 2.33852 11.9465 2.49392L7.94648 6.86892C7.66698 7.17462 7.68822 7.64902 7.99392 7.92852C8.29963 8.20802 8.77402 8.18678 9.05352 7.88108L11.75 4.9318V16C11.75 16.4142 12.0858 16.75 12.5 16.75C12.9142 16.75 13.25 16.4142 13.25 16V4.9318L15.9465 7.88108C16.226 8.18678 16.7004 8.20802 17.0061 7.92852C17.3118 7.64902 17.333 7.17462 17.0535 6.86892L13.0535 2.49392Z"
        fill="#01ACF0" />
    <path
        d="M4.25 15C4.25 14.5858 3.91422 14.25 3.5 14.25C3.08579 14.25 2.75 14.5858 2.75 15V15.0549C2.74998 16.4225 2.74996 17.5248 2.86652 18.3918C2.98754 19.2919 3.24643 20.0497 3.84835 20.6516C4.45027 21.2536 5.20814 21.5125 6.10825 21.6335C6.97522 21.75 8.07754 21.75 9.44513 21.75H15.5549C16.9225 21.75 18.0248 21.75 18.8918 21.6335C19.7919 21.5125 20.5497 21.2536 21.1517 20.6516C21.7536 20.0497 22.0125 19.2919 22.1335 18.3918C22.25 17.5248 22.25 16.4225 22.25 15.0549V15C22.25 14.5858 21.9142 14.25 21.5 14.25C21.0858 14.25 20.75 14.5858 20.75 15C20.75 16.4354 20.7484 17.4365 20.6469 18.1919C20.5482 18.9257 20.3678 19.3142 20.091 19.591C19.8142 19.8678 19.4257 20.0482 18.6919 20.1469C17.9365 20.2484 16.9354 20.25 15.5 20.25H9.5C8.06459 20.25 7.06347 20.2484 6.30812 20.1469C5.57435 20.0482 5.18577 19.8678 4.90901 19.591C4.63225 19.3142 4.4518 18.9257 4.35315 18.1919C4.25159 17.4365 4.25 16.4354 4.25 15Z"
        fill="#01ACF0" />
</svg>
