<svg fill="none" height="48" viewBox="0 0 50 48" width="50" xmlns="http://www.w3.org/2000/svg">
    <path
        d="M25.508 8C26.6207 8.00588 29.4046 8.03172 32.3625 8.14546L33.4113 8.18936C36.3894 8.32472 39.3651 8.55596 40.8409 8.951C42.8094 9.4819 44.3567 11.031 44.8796 12.9946C45.7123 16.1128 45.8165 22.1988 45.8294 23.6716L45.8313 23.9768V23.9982C45.8313 23.9982 45.8313 24.0056 45.8313 24.0198L45.8294 24.325C45.8165 25.7978 45.7123 31.8838 44.8796 35.002C44.3494 36.9728 42.8021 38.522 40.8409 39.0456C39.3651 39.4406 36.3894 39.6718 33.4113 39.8072L32.3625 39.851C29.4046 39.9648 26.6207 39.9906 25.508 39.9966L25.0196 39.9982H24.998C24.998 39.9982 24.9907 39.9982 24.9763 39.9982L24.4884 39.9966C22.1334 39.9842 12.2868 39.882 9.15507 39.0456C7.1865 38.5146 5.63925 36.9656 5.11623 35.002C4.28359 31.8838 4.1795 25.7978 4.1665 24.325V23.6716C4.1795 22.1988 4.28359 16.1128 5.11623 12.9946C5.6465 11.0237 7.19375 9.47464 9.15507 8.951C12.2868 8.11446 22.1334 8.01244 24.4884 8H25.508ZM20.8313 16.9983V30.9982L33.3313 23.9982L20.8313 16.9983Z"
        fill="#FF0000" />
</svg>
